<?xml version="1.0" encoding="utf-8"?>
<!-- Generator: Adobe Illustrator 16.0.0, SVG Export Plug-In . SVG Version: 6.00 Build 0)  -->
<!DOCTYPE svg PUBLIC "-//W3C//DTD SVG 1.1//EN" "http://www.w3.org/Graphics/SVG/1.1/DTD/svg11.dtd">
<svg version="1.1" id="易企秀" xmlns="http://www.w3.org/2000/svg" xmlns:xlink="http://www.w3.org/1999/xlink" x="0px" y="0px"
	 width="218.92px" height="876.79px" viewBox="0 0 218.92 876.79" enable-background="new 0 0 218.92 876.79" xml:space="preserve">
<path fill="#fff" d="M216.074,381.413c-1.702-1.242-4.828-1.897-6.78-0.756c-1.391,0.812-2.364,1.979-2.989,3.272
	c-0.677,0.951-1.11,2.059-1.096,3.314c0.026,2.223,0.934,3.888,2.373,5.276c-4.754,4.976-8.827,10.605-12.656,16.363
	c0.495-3.357,0.585-6.532-0.961-10.258c-0.556-1.336-3.898-6.985-5.945-5.853c-0.129,0.072-0.167,0.209-0.153,0.345
	c-3.068,2.376-3.427,7.642-3.061,11.147c0.253,2.419,1.267,4.683,2.541,6.719c0.838,1.346,3.294,2.592,3.84,3.621
	c-0.391,0.605-0.782,1.213-1.171,1.816c-6.378,9.89-12.224,20.121-17.436,30.673c-0.52,1.053-0.983,2.122-1.48,3.179
	c-0.41-1.64-0.899-3.272-1.278-4.87c-1.019-4.293-1.591-8.649-2.538-12.956c-1.03-4.686-2.142-9.921-2.995-14.586
	c2.353-1.215,4.029-4.325,3.301-6.929c-0.809-2.887-2.251-4.698-5.046-5.785c-2.62-1.021-5.287,0.362-6.801,2.602
	c-0.223,0.328-0.413,0.699-0.585,1.084c-0.221,0.392-0.398,0.779-0.528,1.101c-1.008,2.507,0.429,5.502,2.339,7.108
	c1.8,1.512,4.084,1.875,6.247,1.208c-0.717,5.627,0.236,11.29,1.581,16.928c-0.737-0.783-1.496-1.454-2.183-1.939
	c-3.016-2.125-7.702-2.709-11.098-1.08c-0.05-0.019-0.093-0.054-0.145-0.063c-0.311-0.072-0.536,0.14-0.556,0.403
	c-0.005,0.002-0.012,0.006-0.018,0.009c-0.304,0.187-0.164,0.628,0.176,0.648c0.023,0.002,0.047,0,0.071,0.002
	c1.371,3.013,2.56,5.688,5.303,7.759c3.103,2.342,6.767,2.812,10.477,2.291c0.983,3.931,1.839,7.835,2.122,11.699
	c-2.052,4.678-3.894,9.417-5.615,14.194c-0.258-3.288-1.241-6.505-3.262-9.174c-0.901-1.193-2.996-3.79-4.579-4.091
	c-0.806-0.151-1.436-0.617-1.302-0.337c-0.057-0.122-0.258-0.122-0.315,0c-0.032,0.072-0.07,0.144-0.113,0.211
	c-0.027,0.045-0.016,0.09-0.017,0.137c-0.062,0.034-0.129,0.045-0.18,0.11c-1.885,2.396-1.042,6.363-0.63,9.102
	c0.689,4.602,3.397,8.693,8.156,9.766c0.029,0.124,0.08,0.229,0.15,0.317c-2.018,6.028-3.863,12.115-5.594,18.251
	c-0.528-6.139-2.077-12.239-3.977-17.943c-2.148-6.446-14.462-17.544-19.871-7.763c-1.704,3.08-2.024,7.556,0.558,10.409
	c1.858,2.055,5.885,4.401,8.617,2.219c1.827-1.46,4.312-5.326,1.519-7.284c-1.791-1.255-4.605-1.073-4.262,1.729
	c0.072,0.592,0.799,0.7,1.022,0.14c-0.727,1.813-1.148,4.32-3.692,2.043c-2.182-2.428-2.226-5.281-0.132-8.562
	c3.528-1.343,6.403-0.774,8.623,1.704c3.438,2.947,6.6,8.879,6.731,13.566c0.097,3.456,1.73,6.762,1.862,10.279
	c0.091,2.415,0.437,5.029,0.777,7.529c-0.915,3.396-1.82,6.798-2.718,10.213c-2.008,7.642-3.942,15.304-5.792,22.983
	c-0.083-1.055-0.236-2.099-0.543-3.094c-1.057-3.418-3.226-4.979-5.932-6.931c-0.143-0.104-0.339-0.072-0.484,0
	c-0.104,0.05-0.181,0.106-0.269,0.18c-0.129,0.11-0.129,0.358,0,0.468c0.06,0.049,0.117,0.126,0.177,0.18
	c-0.608,0.452-0.979,1.265-1.201,1.962c-0.293,0.918-1.099,3.564-0.789,4.55c0.499,1.588,0.146,3.463,0.862,4.996
	c0.585,1.251,1.158,2.468,1.906,3.632c0.519,0.808,1.582,1.156,2.281,1.793c0.359,0.329,0.861,0.329,1.22,0
	c0.013-0.014,0.028-0.024,0.042-0.038c0.247,0.176,0.556,0.25,0.865,0.211c-0.66,2.853-1.306,5.711-1.937,8.574
	c-0.658-1.29-1.377-2.561-1.939-3.936c-1.083-2.655-2.226-5.225-3.542-7.765c-1.478-2.854-3.111-5.673-4.714-8.457
	c-0.192-0.335-0.522-0.657-0.856-0.97c0.044-0.027,0.089-0.042,0.133-0.07c2.314-1.359,2.773-4.424,2.292-6.858
	c-1.032-5.216-8.407-8.351-11.707-3.128c-0.496,0.785-0.83,1.51-0.938,2.365c-0.032,0.148-0.069,0.29-0.093,0.44
	c-0.05,0.304-0.073,0.608-0.083,0.914c-0.08,0.311-0.154,0.621-0.082,0.997c0.065,0.335,0.174,0.655,0.282,0.972
	c0.026,0.104,0.061,0.205,0.09,0.309c0.072,0.216,0.148,0.432,0.193,0.659c0.148,0.76,0.732,1.631,1.491,2.333
	c0.269,0.288,0.555,0.561,0.873,0.799c1.97,1.481,4.004,1.684,6.061,0.95c0.622,2.228,2.594,5.216,3.099,6.309
	c1.418,3.072,3.042,5.963,4.245,9.147c1.225,3.245,3.337,6.29,4.175,9.646c-1.946,9.114-3.724,18.261-5.276,27.455
	c-2.417,14.307-4.434,29.318-4.51,44.151c-0.074-0.448-0.148-0.898-0.224-1.346c0.165-0.398,0.132-0.866-0.22-1.316
	c-2.076-12.304-4.319-24.579-6.697-36.827c4.018-1.769,7.297-6.345,9.356-10.042c1.816-3.26,1.612-6.406-0.804-9.116
	c-0.091-0.101-0.278-0.101-0.369,0c-0.071,0.081-0.142,0.169-0.189,0.266c-2.648-0.375-6.013,3.157-7.283,4.971
	c-1.199,1.713-1.946,3.644-2.327,5.648c-0.008-0.043-0.017-0.086-0.025-0.128c-2.16-10.837-4.525-21.629-6.961-32.405
	c-0.441-7.403-0.102-14.959-0.014-22.34c0.07-5.846-0.267-11.586,0.94-17.376c0.986-4.721,3.18-10.263,8.846-10.999
	c1.637,1.018,3.274,2.034,4.911,3.054c1.437,6.402,0.395,8.211-3.112,5.45c0.009-0.002,0.018-0.007,0.027-0.009
	c0.217-0.077,0.337-0.229,0.414-0.398c0.049-0.038,0.078-0.052,0.136-0.099c0.356-0.284,0.385-0.896,0.163-1.262
	c-1.14-1.877-2.285-4.147-5.242-2.415c-2.762,1.618-2.93,6.582-0.448,8.557c9.103,7.246,16.716-8.769,8.184-14.279
	c-4.677-3.02-9.336-1.348-12.818,2.574c-4.79,5.396-4.63,12.902-4.865,19.703c-0.209,6.048,0.075,12.196,0.25,18.296
	c-3.687-16.026-7.44-32.038-10.907-48.111c7.139,1.365,14.047-3.911,13.598-11.58c-0.053-0.913-0.82-1.206-1.458-1.048
	c-2.925-2.239-7.623-0.016-9.924,2.212c-1.49,1.44-2.665,3.418-3.269,5.529c-0.905-4.28-1.791-8.564-2.641-12.857
	c-0.958-4.838-1.875-9.689-2.761-14.548c1.099-5.029,3.371-9.979,5.181-14.833c0.011,0.011,0.033,0.038,0.042,0.047
	c1.696,1.969,4.914,3.061,7.369,3.583c1.717,0.365,4.446,0.304,6.049-0.585c1.429-0.794,2.81-2.088,4.252-2.761
	c0.408-0.191,0.648-0.704,0.649-1.132c0-0.045-0.014-0.083-0.017-0.126c0.04-0.25-0.045-0.481-0.177-0.693
	c-0.013-0.031-0.02-0.059-0.035-0.092c-0.13-0.293-0.342-0.443-0.574-0.533c-0.488-3.654-6.768-5.022-9.686-4.978
	c-1.184,0.018-3.921,0.864-6.11,2.142c1.534-4.68,2.951-9.563,3.687-14.401c5.2,3.481,11.935-1.058,11.685-7.025
	c-0.237-5.664-8.056-10.054-12.418-5.779c-1.585,1.55-2.159,3.907-2.129,6.168c-0.026,1.937,0.479,4.165,1.754,5.664
	c-2.892,5.497-4.179,11.841-6.159,17.705c-1.286,3.807-3.062,7.637-4.438,11.539c-1.31-7.439-2.547-14.896-3.685-22.374
	c0.196-3.607,0.787-7.237,0.831-10.83c0.083-6.697,0.345-13.79,1.257-20.428c0.596-4.343,0.848-8.816,1.291-13.19
	c0.275-2.728,0.81-5.266,2.596-7.476c3.163-3.911,8.734-2.264,9.271,2.795c0.883,8.312-3.759,2.698-4.55,1.346
	c0.18,0.309,0.486,0.396,0.799,0.509c0.763,0.281,1.164-0.585,0.9-1.175c0.037-0.311,0.003-0.664-0.255-0.871
	c-6.061-4.847-7.851,11.28,0.967,8.854c4.479-1.233,6.213-6.53,5.304-10.666c-1.154-5.256-5.167-7.234-10.208-6.352
	c-10.487,1.834-8.441,19.557-9.272,26.928c-0.712,6.31,0.132,12.925-0.589,19.255c-1.792-12.831-3.305-25.713-4.545-38.62
	c0.199-0.218,0.326-0.522,0.273-0.907c-0.073-0.534-0.267-1.033-0.517-1.519c-0.192-2.052-0.358-4.109-0.534-6.166
	c2.169,0.794,5.028,0.252,6.964-0.508c4.72-1.85,6.1-5.768,8.347-9.811c0.038-0.068,0.039-0.13,0.062-0.198
	c0.056-0.021,0.11-0.027,0.167-0.048c0.643-0.25,0.643-1.055,0-1.305c-3.942-1.542-8.833-1.018-12.266,1.401
	c-1.768,1.245-2.935,2.75-3.78,4.46c-0.81-10.243-1.45-20.495-1.879-30.753c2.657,1.186,5.612,1.046,8.57,0.398
	c3.881-0.851,6.33-3.861,8.265-7.032c0.111-0.183,0.158-0.362,0.172-0.533c0.065,0.004,0.115,0.031,0.183,0.031
	c0.453,0.007,0.885-0.583,0.569-0.99c-4.991-6.472-14.841-1.606-17.871,4.784c-0.168-4.458-0.301-8.915-0.394-13.373
	c1.677-6.532,3.91-12.986,7.304-18.841c0.974,2.05,3.34,3.537,5.395,4.401c1.978,0.83,7.18,1.298,9.035-0.617
	c0.395,0.081,0.82-0.052,0.916-0.531c1.007-5.067-7.274-9.1-12.373-7.772c0.528-0.716,1.053-1.436,1.628-2.126
	c2.67-3.202,5.375-6.31,8.338-9.246c0.858-0.85,3.335-3.929,4.978-5.486c0.765,1.98,2.579,3.634,4.943,4.438
	c2.606,0.887,5.503,0.185,7.46-1.771c1.978-1.978,2.141-5.041,1.529-7.597c-1.326-5.54-7.666-7.554-11.894-4.019
	c-1.707,1.427-2.363,3.571-2.3,5.673c-0.132,0.619-0.169,1.235-0.1,1.836c-1.168,0.763-2.998,2.21-3.469,2.619
	c-0.664,0.576-1.287,1.184-1.924,1.782c0.792-2.016,1.279-4.228,1.255-6.62c-0.021-2.012-1.374-8.701-4.534-8.204
	c-0.072,0.012-0.121,0.054-0.169,0.099c-0.223,0.014-0.439,0.097-0.55,0.301c-0.052,0.095-1.861,1.895-1.94,1.989
	c-1.187,1.364-1.604,3.407-1.995,5.108c-0.539,2.349-0.366,4.586,0.151,6.921c0.494,2.232,2.078,3.294,3.106,5.124
	c-1.873,2.041-3.679,4.149-5.474,6.296c-3.22,3.85-7.245,9.944-9.479,16.062c-0.061-7.869,0.022-15.733,0.207-23.591
	c3.192-11.285,8.496-22.072,11.989-33.278c1.841-5.9,4.184-15.74,11.774-16.199c3.91-0.236,5.765,2.183,5.931,5.902
	c0.214,4.822-3.388,3.155-5.542,1.755c0.154-0.124,0.288-0.279,0.339-0.502c1.559-6.848-10.437-1.535-4.966,4.127
	c3.731,3.859,7.66,2.459,11.479-0.497c3.796-2.941,2.175-8.76-0.279-11.926c-2.003-2.583-8.126-3.099-10.791-1.625
	c-5.26,2.912-7.447,7.587-9.428,13.114c-2.683,7.484-5.061,15.071-7.753,22.564c-0.952,2.651-1.713,5.345-2.504,8.038
	c0.282-8.026,0.671-16.044,1.225-24.046c0.487-7.043,1.114-14.073,1.805-21.091c1.743-6.109,6.654-12.874,11.375-17.624
	c0.202,0.372,0.399,0.759,0.562,0.925c0.561,0.567,1.108,1.121,1.748,1.603c1.151,0.871,2.798,2.417,4.278,2.685
	c3.633,0.657,6.498-0.245,10.025-0.59c0.298-0.029,0.54-0.15,0.739-0.315c0.243,0.047,0.559-0.072,0.657-0.294
	c1.346-3.074-5.195-6.792-7.235-7.662c-1.558-0.664-3.997-0.781-6.301-0.355c2.663-2.158,5.394-4.084,8.265-6.06
	c1.4-0.963,2.866-1.836,4.315-2.723c-0.057,0.036,0.934-0.993,1.725-1.809c1.181,1.577,3.047,2.421,5.065,2.7
	c5.7,0.778,9.923-3.434,8.747-9.145c-1.228-5.95-9.127-7.079-13.294-3.744c-2.08,1.663-2.182,4.109-1.723,6.555
	c-0.026,0.621,0.079,1.298,0.351,2.059c0.06,0.167,0.141,0.311,0.21,0.463c-0.849,0.333-1.84,0.9-2.816,1.526
	c1.223-2.512,1.589-5.355,1.402-8.25c-0.264-4.109-2.675-5.702-5.141-8.578c-0.206-0.243-0.587-0.041-0.593,0.243v0.004
	c-1.734,1.901-3.165,4.066-3.924,6.85c-1.405,5.153,0.293,9.005,3.073,13.152c-3.295,2.113-6.298,4.408-9.272,7.027
	c-3.445,3.038-6.072,6.679-8.814,10.369c-0.854,1.148-1.833,2.496-2.727,3.94c0.469-4.35,0.981-8.692,1.521-13.035
	c0.031-0.041,0.083-0.048,0.105-0.1c4.778-11.03,9.595-21.777,15.119-32.22c3.305-4.606,8.143-8.765,11.6-13.013
	c2.571-3.164,5.131-6.305,7.917-9.284c3.445-3.688,11.362-5.279,11.584,2.196c0.031,2.64-1.14,4.467-3.516,5.481
	c-4.32-1.47-5.079-2.698-2.275-3.684c0.395,0.83,1.755,0.423,1.715-0.466c-0.288-6.23-7.858-2.725-6.362,2.93
	c2.197,8.312,12.899,4.489,13.699-2.754c1.049-9.514-9.101-13.573-15.916-7.462c-4.695,4.212-8.231,9.86-12.142,14.892
	c1.745-2.905,3.539-5.794,5.456-8.647c5.856-8.715,12.287-17.148,19.822-24.473c0.558-0.543,1.146-1.051,1.712-1.587
	c0.622,0.531,1.242,1.062,1.881,1.571c1.521,1.21,3.242,2.025,5.18,2.268c3.833,0.478,8.919,0.639,12.19-1.815
	c0.489-0.367,0.581-0.916,0.448-1.389c0.066-0.319,0.007-0.671-0.267-0.988c-2.762-3.193-6.008-4.674-10.23-4.975
	c-1.74-0.124-3.169,0.347-4.501,1.042c1.679-1.463,3.375-2.905,5.117-4.296c2.56-2.043,6.12-4.019,8.271-6.742
	c0.101,0.14,0.222,0.256,0.332,0.382c0.173,0.288,0.35,0.562,0.524,0.819c1.584,2.34,4.625,2.855,7.205,2.324
	c2.918-0.601,5.19-4.111,5.44-6.939c0.562-6.363-5.995-10.353-11.435-7.695c-2.625,1.28-3.788,4.311-3.519,7.072
	c0.098,1.013,0.385,2.07,0.848,3.018c-2.455,1.633-5.037,3.064-7.494,4.719c0.876-2.662,1.181-5.559,1.01-8.146
	c-0.36-5.446-6.077-9.359-11.214-7.005c-2.479,1.136-3.472,3.434-3.34,6.093c0.089,1.816,1.839,5.435,3.708,6.024
	c4.49,1.422,9.423-3.263,4.72-6.71c-0.358-0.266-0.834-0.167-1.201,0c-0.908,0.41-1.365,1.255-0.95,2.173
	c0.108,0.239,0.368,0.358,0.63,0.362c-1.899,0.961-3.016,0.502-3.337-1.397c0.902-3.609,2.697-4.752,5.382-3.425
	c2.75,1.22,2.51,5.288,2.686,7.696c0.17,2.324-0.757,5.038-2.103,7.405c-3.274,2.653-6.454,5.409-9.521,8.31
	c-7.327,6.931-13.441,15.067-19.239,23.29c-6.074,8.613-11.384,17.729-16.227,27.079c-2.406,4.648-5.53,9.984-7.834,15.445
	c2.206-15.79,4.846-31.521,7.815-47.196c0.848,0.272,1.619,0.536,2.764,0.54c2.329,0.014,4.457-0.247,6.689-0.954
	c3.918-1.244,7.835-5.481,7.745-9.75c-0.018-0.81-0.699-1.179-1.332-1.143c-2.607-2.208-7.483-1.144-10.149,0.375
	c-1.878,1.071-3.271,2.48-4.396,4.08c0.237-1.213,0.461-2.428,0.702-3.643c0.551-2.768,1.11-5.536,1.667-8.303
	c1.729-5.085,3.791-10.009,5.839-15.052c2.268-5.58,4.084-12.106,10.298-14.331c5.595-2.003,8.626,2.938,7.473,7.711
	c-0.646,1.926-1.965,2.797-3.96,2.608c-0.518-2.926-0.288-3.684,0.689-2.28c0.421,0.482,1.215,0.201,1.378-0.362
	c1.58-5.448-8.526-3.924-6.779,2.426c0.839,3.056,4.379,3.956,7.12,3.452c4.38-0.806,5.418-6.066,5.33-9.687
	c-0.28-11.338-14.496-8.051-19.283-2.005c-1.798,2.273-3.041,5.122-4.1,8.076c0.835-3.926,1.694-7.851,2.572-11.771
	c2.501-5.416,5.231-10.644,8.294-15.846c1.366,1.908,3.488,2.885,5.957,3.47c3.905,0.927,7.148,0.209,10.473-1.749
	c0.423-0.25,0.569-0.627,0.558-1.001c0.199-0.13,0.345-0.342,0.332-0.589c-0.089-1.573-1.527-2.599-2.566-3.702
	c-1.764-1.87-3.497-2.124-5.908-2.504c-1.566-0.248-3.632,0.002-5.464,0.707c2.283-3.197,4.912-6.224,7.442-9.172
	c0.162-0.189,1.034-1.116,1.811-1.974c4.163,4.021,11.879,1.53,12.917-4.269c0.499-2.781-0.538-5.742-2.714-7.538
	c-1.214-1.003-2.829-1.861-4.42-1.984c-1.749-0.135-2.713,0.558-4.253,1.143c-2.854,1.08-4.401,4.424-4.254,7.345
	c0.067,1.344,0.587,2.993,1.538,4.048c-0.516,0.291-1.026,0.553-1.232,0.727c-1.455,1.237-2.416,2.628-3.752,3.985
	c-3.208,3.256-5.832,7.257-8.184,11.15c-1.292,2.14-2.677,4.388-4.012,6.706c0.302-1.267,0.583-2.539,0.89-3.805
	c3.422-14.086,7.99-27.698,12.29-41.476c2.775,1.451,5.26,1.658,8.472,0.542c3.449-1.201,4.514-3.515,6.176-6.548
	c0.156-0.284,0.17-0.599,0.097-0.887c0.119-0.238,0.115-0.526-0.104-0.756c-1.469-1.553-5.788-2.759-7.786-1.771
	c-1.302,0.641-3.251,1.575-4.826,2.811c0.102-0.335,0.206-0.67,0.307-1.006c1.85-6.177,3.188-12.432,3.727-18.843
	c1.476,0.092,2.992-0.297,4.355-0.875c3.043-1.294,4.556-3.839,4.134-7.183c-0.726-5.733-8.306-8.47-12.686-4.939
	c-1.849,1.489-2.314,4.728-1.818,7.014c0.241,2.048,1.589,4.046,3.227,5.099c0.437,0.279,0.895,0.468,1.36,0.614
	c-2.061,16.163-8.886,31.287-13.6,46.771c-0.649,2.133-1.276,4.275-1.886,6.422c0.52-5.234,0.886-10.481,1.038-15.576
	c0.191-6.449,0.491-25.968-10.068-25.868c-9.827,0.092-11.007,9.743-5.481,16.197c5.022,5.871,13.14-3.215,6.769-7.998
	c-0.305-0.229-0.859-0.207-1.168,0c-1.208,0.815-1.17,0.882-1.229,2.388c-0.034,0.857,1.102,0.869,1.381,0.187
	c-3.32,8.079-9.539-4.36-2.643-7.176c5.859-2.392,7.711,6.573,8.725,10.11c1.509,5.259,1.539,11.976,0.999,17.439
	c-0.675,6.823-0.913,13.895-1.154,20.841c-0.618,2.405-1.219,4.815-1.801,7.23c-2.709-5.498-8.748-11.865-14.814-9.854
	c-0.042,0.013-0.057,0.045-0.093,0.063c-0.197-0.099-0.445-0.095-0.552,0.112c-1.61,3.128,0.362,6.933,2.401,9.343
	c1.538,1.816,3.184,2.961,5.309,3.999c0.7,0.34,1.499,0.511,2.267,0.596c0.416,0.045,3.801,0.284,3.413-0.201
	c0.226,0.281,0.636,0.381,1.021,0.34c-0.596,2.552-1.18,5.104-1.751,7.66c-0.483,1.539-0.817,3.101-1.038,4.671
	c-0.821,3.749-1.625,7.496-2.421,11.24c-0.688-1.737-1.708-3.351-2.967-4.728c-1.583-1.729-4.578-4.714-7.243-4.334
	c-0.062-0.039-0.123-0.077-0.185-0.115c-0.347-0.211-0.813-0.076-1.016,0.268c-3.886,6.584,2.254,16.757,9.811,16.555
	c-1.817,8.715-3.558,17.446-5.209,26.188c-0.732-4.525-2.18-8.958-3.81-13.265c-1.752-4.626-3.775-8.879-6.472-13.044
	c-1.647-2.545-3.551-6.37-6.453-7.844c0.222-0.232,0.447-0.462,0.644-0.723c2.138-2.835,1.83-6.643-0.234-9.431
	c-1.854-2.504-5.602-3.328-8.54-2.844c-3.847,0.632-6.537,4.197-6.788,7.957c-0.223,3.355,2.831,6.548,5.86,7.302
	c0.541,0.133,1.134,0.185,1.731,0.181c2.251,0.445,4.577-0.181,6.401-1.604c3.15,4.352,5.908,8.94,8.255,13.71
	c-1.16-0.846-2.311-1.638-3.181-2.421c-3.296-2.966-8.677-2.802-12.494-1.098c-0.407,0.18-0.332,0.896,0.097,0.999
	c-0.119,0.158-0.218,0.331-0.184,0.463c0.386,1.445,1.039,2.786,1.708,4.123c1.206,2.413,3.872,3.843,6.06,5.189
	c2.081,1.276,5.872,0.963,8.158,0.684c0.997-0.122,2.033,0.041,2.881-0.284c0.08,0,0.163,0.009,0.24-0.002
	c0.017-0.002,0.033-0.007,0.05-0.007c2.312,6.078,3.914,12.412,4.759,18.92c-0.604,3.299-1.177,6.602-1.751,9.905
	c-0.652-2.039-1.659-3.994-2.773-5.59c-1.6-2.291-6.088-4.383-8.831-3.895c0,0-0.001,0.002-0.002,0.002
	c-0.034-0.07-0.045-0.144-0.083-0.211c-0.135-0.243-0.511-0.243-0.646,0c-2.025,3.645,0.381,8.747,2.663,11.688
	c1.482,1.908,5.884,5.158,8.6,4.253c-1.292,7.718-2.501,15.45-3.606,23.195c-0.528-4.046-1.484-8.001-3.162-11.685
	c-2.232-4.903-4.221-8.895-8.417-12.378c-2.45-2.034-7.675-2.408-10.426-0.801c-6.552,3.825-5.675,14.55,2.113,16.39
	c5.782,1.366,9.849-6.323,4.696-9.613c-0.289-0.185-0.656-0.153-0.947,0c-0.404,0.216-0.551,0.288-0.836,0.612
	c-0.216,0.247-0.239,0.521-0.104,0.814c0.034,0.074,0.067,0.146,0.102,0.22c0.167,0.362,0.791,0.362,0.958,0
	c-0.875,1.897-0.608,7.723-5.292,3.42c-4.427-4.068-0.499-8.911,4.4-9.354c6.081-0.551,9.715,9.417,11.37,13.773
	c2.287,6.017,3.38,13.132,4.016,19.932c-0.743,5.747-1.448,11.503-2.066,17.272c-0.312,2.912-0.571,5.824-0.845,8.738
	c-1.689-3.477-4.197-6.852-6.2-9.411c-1.052-1.343-2.144-2.644-3.242-3.94c0.133-0.135,0.233-0.291,0.292-0.463
	c3.546-5.081,5.813-16.101-0.584-19.721c0.008-0.005,0.017-0.018,0.025-0.022c0.17-0.088,0.17-0.362,0-0.45
	c-1.814-0.932-4.35,3.708-4.657,4.752c-0.944,3.208-1.218,6.62-0.503,9.766c-2.497-2.707-5.043-5.369-7.593-8.038
	c0.663-0.985,1.035-2.194,0.961-3.591c-0.288-5.387-7.289-9.527-11.694-5.803c-1.311,1.109-1.923,2.792-1.983,4.489
	c-0.059,0.292-0.106,0.569-0.126,0.79c-0.246,2.635,0.893,4.669,3.158,6.021c2.904,1.734,6.766,1.154,8.954-1.038
	c0.607,1.168,1.642,2.156,2.478,3.124c2.7,3.119,5.38,6.255,8.029,9.419c1.544,1.843,3.02,3.735,4.436,5.671
	c-2.125-0.433-4.515-0.333-6.024-0.229c-4.727,0.324-7.04,2.938-9.824,6.194l0,0c-0.003,0-0.008,0-0.011,0
	c-0.368,0.057-0.32,0.527-0.091,0.698c-0.026-0.016-0.052-0.034-0.078-0.052c0.03,0.252,0.146,0.45,0.403,0.527
	c2.806,0.848,5.365,2.257,8.646,2.419c3.253,0.159,8.438-1.535,10.316-4.665c0.027,0.045,0.061,0.086,0.089,0.131
	c1.718,2.763,2.806,5.868,4.321,8.719c-0.519,6.038-0.927,12.072-1.285,18.112c-0.153-0.223-0.292-0.463-0.462-0.661
	c-1.768-2.048-6.095-6.337-9.134-5.419c-0.045,0.014-0.064,0.05-0.101,0.072c-0.102-0.014-0.206,0.027-0.248,0.15
	c-1.481,4.336-0.17,9.001,1.985,12.883c0.907,1.634,2.761,2.597,4.293,3.513c1.169,0.699,1.99,1.563,3.056,1.379
	c-0.423,10.022-0.627,20.045-0.64,30.065c-3.464-14.472-12.208-33.164-22.605-24.165c-5.173,4.473,0.958,17.747,7.42,13.762
	c6.071-3.749-0.713-11.084-2.749-6.215c-0.357,0.853,0.9,1.445,1.48,0.859c-4.67,4.708-6.96-6.48-1.336-7.133
	c2.718-0.315,5.43,3.061,6.813,4.939c2.322,3.152,4.269,7.554,5.707,11.208c1.879,4.772,4.299,10.54,5.293,15.972
	c0.132,12.41,0.566,24.811,1.266,37.205c-2.464-3.877-5.014-7.696-7.617-11.48c1.9-2.543,2.331-7.561,2.051-10.558
	c-0.393-4.212-2.333-8.317-5.643-10.99c-0.007-0.005-0.014,0.002-0.021-0.002c-0.01-0.038-0.009-0.067-0.019-0.108
	c-0.041-0.16-0.251-0.173-0.333-0.043c-2.533,3.951-3.558,6.256-3.473,10.833c-2.075-3.069-4.116-6.166-6.067-9.32
	c-0.928-1.499-1.786-3.038-2.681-4.559c2.184-1.903,4.143-7.009,3.527-9.838c-0.537-2.466-0.543-4.577-1.564-6.971
	c-0.471-1.107-2.636-2.957-2.851-3.314c-0.109-0.18-0.364-0.264-0.549-0.145c-0.094,0.061-0.158,0.106-0.228,0.194
	c-0.081,0.099-0.081,0.207,0,0.306c0.013,0.016,0.025,0.042,0.039,0.061c-2.5,1.31-3.588,5.135-4.264,7.811
	c-0.074,0.295-0.126,0.637-0.158,1.008c-2.812-5.38-5.43-10.859-7.864-16.422c-0.917-6.805-1.991-13.593-2.907-20.389
	c-0.721-5.36-1.021-11.004-0.741-16.404c0.15-2.909,0.243-5.851,1.115-8.646c0.34-0.725,0.68-1.446,1.02-2.169
	c2.217-3.922,4.642-3.288,7.272,1.904c-0.129,0.625-0.259,1.251-0.388,1.876c-0.691-0.167-1.246-0.299-1.724-0.409
	c0.484-0.257,0.794-0.896,0.447-1.387c-0.565-0.792-0.726-0.977-1.505-1.629c-0.501-0.418-1.158-0.583-1.753-0.228
	c-6.347,3.794,0.921,12.784,6.223,7.318c5.459-5.626-0.404-16.168-7.939-12.734c-8.784,4.003-6.218,21.026-5.643,28.337
	c0.323,4.104,1.052,8.159,1.593,12.223c0.033,0.248,0.092,0.481,0.128,0.727c-3.896-10.288-7.02-20.808-9.612-31.465
	c0.014-0.024,0.036-0.034,0.049-0.061c0.186-0.243,1.651-0.794,1.716-0.824c1.073-0.508,2.018-1.433,2.868-2.228
	c1.75-1.629,2.732-4.905,3.363-7.155c0.86-3.069,1.032-6.411-1.436-8.391c-0.09-0.2-0.272-0.346-0.494-0.392
	c-0.012-0.006-0.019-0.016-0.032-0.025c-0.137-0.085-0.324-0.081-0.462,0c-0.012,0.007-0.024,0.014-0.035,0.021
	c-4.087,0.076-6.857,4.089-7.938,8.477c-2.509-11.872-4.465-23.875-6.201-35.882c3.49-0.322,6.849-4.053,7.001-7.61
	c0.235-5.463-5.814-8.636-10.417-5.983c-2.146,1.235-3.362,3.787-3.472,6.18c-0.044,0.947,0.254,1.888,0.773,2.693
	c0.448,1.224,1.155,2.354,1.989,3.184c0.904,0.9,1.907,1.359,2.926,1.51c-0.112,2.655-0.09,5.319,0.056,7.984
	c-0.627-0.628-1.314-1.204-2.099-1.674c-2.008-1.21-3.918-2.332-6.264-2.703c-0.299-0.047-1.064,0.124-1.586,0.124
	c-0.001-0.005,0.003-0.012,0.001-0.016c-0.028-0.07-0.056-0.142-0.084-0.21c-0.085-0.211-0.379-0.369-0.577-0.198
	c-0.282-0.032-0.576,0.14-0.647,0.412c-0.012,0.048-0.011,0.093-0.022,0.14c-0.119,0.146-0.169,0.34-0.083,0.506
	c-0.709,3.952,1.371,7.872,4.072,10.662c1.789,1.848,5.502,3.825,8.396,3.56c1.003,6.73,2.463,13.418,3.953,19.978
	c-5.821-10.495-14.489-20.041-20.749-9.669c-3.1,5.132,2.022,14.243,8.344,10.844c3.772-2.03,3.13-9.327-1.593-7.01
	c-0.306,0.151-0.479,0.518-0.484,0.844c-0.004,0.288-0.009,0.581-0.014,0.869c-0.002,0.16,0.057,0.279,0.127,0.385
	c-1.115,0.025-2.229,0.049-3.346,0.075c-0.873-2.446-0.066-4.667,2.419-6.666c2.543-0.995,5.218,1.499,6.752,3.189
	c2.547,2.81,4.792,6.037,6.496,9.435c1.557,3.105,3.121,6.515,4.867,9.689c2.469,9.892,5.344,19.617,8.929,29.181
	c-1.992-1.354-3.89-2.941-5.81-4.343c-2.681-1.956-5.243-4.127-7.949-6.026c-0.704-0.495-3.813-1.921-5.436-2.934
	c0.745-1.708,0.896-3.762,0.613-5.439c-0.493-2.923-3.385-4.691-6.063-5.227c-2.822-0.563-5.413,0.333-6.98,2.74
	c-1.477,2.266-1.203,5.36-0.024,7.705c0.443,1.1,1.158,2.095,2.285,2.92c2.668,1.958,5.849,1.56,8.367-0.319
	c0.472-0.351,0.853-0.796,1.185-1.281c1.89,1.807,3.911,3.562,6.022,5.266c-6.233,1.339-10.736,8.139-9.943,14.516
	c-0.113,0.246-0.028,0.558,0.29,0.675c4.402,1.618,9.451-2.052,11.876-5.518c0.673-0.963,0.986-2.129,1.18-3.265
	c0.107-0.627-0.083-2.275,0.168-2.756c0.111-0.216,0.173-0.455,0.231-0.693c3.807,2.847,7.747,5.531,11.555,8.052
	c0.045,0.11,0.084,0.223,0.13,0.333c4.857,12.135,10.765,23.834,17.403,35.085c-0.448-0.369-0.896-0.752-1.34-1.109
	c-3.996-3.211-6.62-6.841-11.493-8.735c-4.192-1.631-8.186-1.879-11.87,0.925c-2.691,2.05-3.998,6.31-2.345,9.388
	c1.771,3.306,4.383,6.127,8.271,6.427c3.195,0.245,4.835-2.907,4.858-5.549c0.037-4.204-6.771-4.51-5.449-1.611
	c0.197,0.432,0.941,0.432,1.138,0c0.143-0.315,0.479,0.266,0.488,0.274c-1.578,0.437-3.157,0.873-4.736,1.31
	c-2.157-5.891-0.838-8.938,3.957-9.136c4.007-0.36,8.611,3.069,11.238,5.666c2.65,2.624,5.788,4.577,8.694,6.901
	c1.17,0.936,2.237,1.994,3.341,3c5.594,8.659,11.729,16.962,17.583,25.448c-1.013-0.448-2.059-0.826-3.163-1.105
	c-2.23-0.562-6.816-0.934-8.549,1.174c-0.249-0.214-0.628-0.031-0.669,0.307c-0.431,3.47,3.129,6.318,5.914,7.601
	c3.325,1.53,7.259,1.674,10.552,0.108c0.465,7.126,0.998,14.248,1.631,21.368c-1.747-1.31-3.822-2.342-5.297-3.137
	c-5.663-3.053-12.851-5.058-17.678-9.285c1.41-2.569,1.601-5.936,0.214-8.694c-1.011-2.012-5.482-4.028-7.633-3.349
	c-1.308,0.414-2.512,0.419-3.807,1.004c-1.46,0.657-2.407,1.958-3.217,3.27c-0.996,1.613-1.036,3.69-0.44,5.58
	c0.827,3.157,3.815,5.702,7.449,6.109c2.917,0.329,5.212-0.893,6.698-2.812c1.503,2.957,5.543,4.721,8.872,6.109
	c-2.45,0.92-4.532,2.567-6.341,4.615c-2.305,2.614-4.964,6.854-3.754,10.473c-0.068,0.033-0.135,0.061-0.202,0.094
	c-0.393,0.198-0.223,0.702,0.109,0.837c3.806,1.54,8.516-1.724,11.132-4.252c2.338-2.26,3.742-6.177,3.761-9.586
	c2.257,1.186,4.542,2.561,6.522,3.96c1.341,0.945,2.87,1.962,4.007,3.272c0.819,8.74,1.756,17.475,2.812,26.202
	c-0.425-0.612-0.867-1.197-1.329-1.724c-1.468-1.678-3.545-2.925-5.509-3.919c-1.416-0.716-3.132-0.527-4.532-1.099
	c-0.007-0.016-0.01-0.036-0.017-0.054c-0.123-0.329-0.548-0.329-0.671,0c-0.035,0.095-0.044,0.202-0.075,0.297
	c0,0.005-0.001,0.009-0.002,0.011c-1.226,3.836,0.619,9.359,3.488,11.992c1.493,1.372,3.715,2.034,5.541,2.794
	c1.255,0.52,2.67,0.977,3.892,0.498c0.008,0.027,0.015,0.052,0.023,0.079c0.067,0.232,0.208,0.405,0.375,0.54
	c0.731,5.603,1.503,11.199,2.323,16.791c-1.092-1.184-2.115-2.128-2.502-2.39c-3.116-2.124-8.494-2.97-11.569-0.468
	c-0.089,0.072-0.102,0.164-0.087,0.254c-0.077,0.187-0.108,0.394-0.01,0.61c2.006,4.424,4.026,7.437,8.203,9.968
	c1.549,0.938,4.938,1.283,7.255,0.522c0.196,1.27,0.378,2.543,0.578,3.814c0.69,4.367,1.432,8.724,2.208,13.073
	c-2.238-4.655-4.999-9.082-8.243-12.668c-5.147-5.691-16.184-12.266-20.855-2.248c-2.397,5.14,5.585,15.304,10.666,9.973
	c5.582-5.857-3.478-10.14-3.91-5.562c-0.043,0.454,0.342,0.727,0.747,0.77c-0.983,0.457-1.966,0.914-2.949,1.37
	c-2.624-5.097-1.525-7.961,3.295-8.591c3.397-0.381,6.014,2.277,8.312,4.25c3.375,2.894,5.44,6.481,7.848,10.126
	c2.705,4.093,4.468,8.99,7.075,13.187c0.083,0.43,0.16,0.859,0.243,1.289c-3.674-4.406-10.574-6.159-15.988-4.957
	c-0.018-0.022-0.039-0.041-0.056-0.065c-0.146-0.205-0.425-0.119-0.454,0.124c-0.003,0.034,0.008,0.059,0.006,0.09
	c-0.393,0.207-0.392,0.844,0.068,0.975c0.239,0.942,0.89,1.708,1.312,2.685c1.132,2.621,2.396,4.257,4.929,5.564
	c1.87,0.965,4.092,1.094,6.151,1.154c1.832,0.052,3.466,0.4,5.146,0.077c1.93,9.62,3.993,19.206,6.126,28.78
	c-1.972-1.674-4.219-3.125-6.427-4.379c-0.028-0.058-0.041-0.124-0.071-0.182c-0.21-0.405-0.668-0.522-1.088-0.466
	c-0.38-0.207-0.762-0.417-1.133-0.612c-2.507-1.323-5.178-2.522-7.832-3.508c-1.205-0.446-3.515-0.45-4.763-0.925
	c0.446-3.052-1.428-6.316-3.97-8.083c-4.243-2.943-10.407,0.157-11.186,5.054c-0.099,0.626-0.099,1.273-0.051,1.926
	c0.012,1.51,0.609,3.2,1.219,4.309c0.603,1.098,1.492,1.843,2.526,2.305c0.431,0.272,0.937,0.461,1.396,0.652
	c0.142,0.059,1.244,0.034,1.227,0.027c0.72,0.306,1.488,0.153,2.088-0.259c2.126-0.394,4.162-1.454,5.369-2.878
	c0.531-0.628,0.855-1.305,1.092-1.999c0.029,0.005,0.06,0.021,0.087,0.022c1.407,0.12,4.54,1.92,5.581,2.374
	c1.325,0.581,2.664,1.278,3.986,1.985c-2.418,0.851-4.395,2.736-5.951,4.807c-1.86,2.473-4.336,7.329-3.272,10.634
	c-0.287,0.322-0.238,0.9,0.281,1.06c0.064,0.063,0.127,0.124,0.191,0.187c0.223,0.272,0.638,0.263,0.921,0.12
	c0.638-0.324,2.215,0.007,2.909-0.032c0.876-0.047,1.819-0.327,2.62-0.67c2.518-1.083,4.278-2.37,5.932-4.517
	c1.625-2.108,2.729-5.139,2.65-7.983c2.545,1.658,5.032,3.625,6.729,5.787c1.773,7.892,3.565,15.781,5.354,23.675
	c-4.182-3.468-10.166-4.179-15.429-1.492c-0.361,0.185-0.271,0.583-0.014,0.776c0.515,7.777,10.668,10.79,17.083,7.964
	c1.027,4.57,2.044,9.145,3.043,13.724c1.837,8.425,3.608,16.863,5.323,25.312c-2.613-4.795-5.401-10.808-9.043-14.896
	c-3.748-4.205-7.524-10.042-12.971-12.212c-4.43-1.766-10.203-1.89-13.62,1.863c-4.804,5.279,0.643,18.342,8.38,14.892
	c7.704-3.432-0.235-13.227-3.383-7.822c-0.303,0.52,0.378,0.999,0.804,0.621c4.37,0.857,3.523,1.742-2.542,2.651
	c-1.68-1.789-2.255-3.871-1.725-6.245c1.036-5.956,9.22-3.854,12.286-2.205c4.451,2.396,9.348,8.801,11.782,13.062
	c4.557,7.979,10.515,14.129,12.622,23.366c0.001,0.004,0.007,0.007,0.008,0.011c2.219,11.404,4.31,22.833,6.261,34.284
	c-2.524-1.575-5.398-2.783-7.967-3.895c-0.191-0.083-0.372-0.183-0.56-0.271c0.04-0.076,0.085-0.15,0.103-0.231
	c0.378-1.76,0.871-3.848,1.389-5.556c0.635-2.084-0.156-5.196-0.742-7.23c-0.642-2.23-2.241-4.345-3.778-6.04
	c-0.746-0.824-1.555-0.729-2.319-0.934c-0.004-0.023-0.003-0.039-0.008-0.061c-0.036-0.153-0.219-0.149-0.305-0.047
	c-0.094-0.038-0.19-0.079-0.282-0.137c-0.209-0.13-0.446,0.081-0.396,0.304c0.062,0.263,0.133,0.375,0.231,0.466
	c-2.204,3.16-3.29,6.001-2.429,10.036c0.455,2.131,1.229,4.379,2.474,6.242c-0.646-0.335-1.296-0.659-1.966-0.949
	c-1.502-0.653-3.227-1.816-4.943-2.084c0.784-2.934,0.002-6.377-2.853-8.306c-2.856-1.931-6.066-2.271-9.125-0.632
	c-2.9,1.555-3.506,5.54-2.958,8.44c0.63,3.337,3.928,5.299,7.044,5.601c0.059,0.005,0.133,0.007,0.197,0.011
	c0.084,0.014,0.164,0.041,0.248,0.052c3.402,0.491,5.859-1.371,7.01-3.926c3.55,2.657,7.638,4.563,11.397,6.933
	c3.625,2.284,7.9,3.641,11.229,6.354c0.854,5.104,1.677,10.211,2.472,15.324c-2.208-1.629-4.915-2.356-7.825-2.039
	c-1.555,0.169-5.369,0.484-6.606,2.146c-0.019-0.02-0.049-0.042-0.067-0.062c-0.146-0.171-0.461-0.079-0.508,0.135
	c-0.582,2.657,5.851,6.384,7.574,7.01c2.057,0.744,6.079,1.084,8.49-0.34c0.639,4.271,1.264,8.542,1.858,12.817
	c0.331,2.379,0.652,4.762,0.966,7.148c-1.031-1.988-2.192-3.844-3.433-5.477c-3.617-4.762-14.675-6.953-17.836-0.395
	c-2.389,4.958-0.188,13.285,6.604,12.486c4.549-0.535,4.258-7.791-0.319-7.566c-0.512,0.027-0.695,0.675-0.259,0.956
	c-4.458,1.181-5.296-0.481-2.515-4.991c2.431-3.078,8.349-1.439,10.764,0.512c2.122,1.711,3.529,4.963,4.761,7.326
	c1.954,3.742,2.921,7.885,4.04,11.956c1.629,14.432,2.841,28.977,3.4,43.527c-1.634-2.816-3.633-5.566-5.35-8.098
	c-2.771-4.086-5.172-8.668-7.297-13.127c-0.215-0.453-0.48-1.125-0.822-1.732c2.896-1.178,5.175-4.361,4.602-7.451
	c-0.926-4.977-7.123-7.709-11.184-4.311c-0.306,0.258-0.588,0.615-0.841,1.035c-0.834,1.074-1.291,2.15-1.366,3.824
	c-0.112,2.516,1.453,5.074,3.463,6.447c1.223,0.834,2.575,1.051,3.883,0.848c2.251,10.766,11.081,21.162,15.139,30.018
	c0.396,17.531-0.221,35.041-2.265,52.34c-0.964-7.631-1.549-15.314-2.593-22.932c-1.451-10.592-4.471-21.115-7.438-31.365
	c-5.708-19.723-13.437-38.875-23.184-56.947c-0.713-1.321-1.465-2.612-2.202-3.913c0.614-0.506,1.16-1.232,1.674-1.591
	c2.126-1.479,2.873-4.165,3.67-6.483c1.487-4.322,0.463-10.495-2.771-13.708c-0.015-0.014-0.034-0.014-0.049-0.025
	c-0.001-0.004-0.002-0.007-0.003-0.011c-0.082-0.257-0.438-0.257-0.52,0c-0.025,0.081-2.115,1.206-2.306,1.397
	c-1.928,1.928-3.181,5.304-3.949,7.844c-0.391,1.293-0.638,2.773-0.684,4.266c-2.725-4.35-5.598-8.588-8.612-12.72
	c-0.726-2.095-1.409-4.219-2.173-6.246c-1.868-4.948-4.704-9.527-6.949-14.318c-2.293-4.896-6.778-15.686-1.285-19.912
	c2.789-1.194,4.864-0.733,6.225,1.38c-0.819,1.944-1.638,3.891-2.456,5.834c0.437-1.742,0.111-2.61-0.976-2.601
	c0.311,0.14,0.515,0.002,0.805-0.135c0.238-0.113,0.177-0.428,0-0.554c-0.016-0.002-0.033-0.002-0.048-0.002
	c-0.034-0.382-0.28-0.644-0.669-0.668c-0.182-0.034-0.363-0.065-0.546-0.099c-0.472-0.113-0.977,0.067-1.225,0.499
	c-3.156,5.479,5.11,9.719,8.083,4.647c3.826-6.526-2.396-13.062-9.156-11.678c-8.752,1.791-5.047,16.075-2.889,21.111
	c2.372,5.531,5.584,10.609,8.165,16.015c-4.982-6.308-10.305-12.367-15.984-18.182c-1.932-1.978-3.882-3.936-5.837-5.889
	c0-0.142-0.017-0.284-0.068-0.417c-0.041-0.108-0.192-0.484-0.499-1.4c-0.608-1.825-1.878-3.499-2.612-5.27
	c-0.627-1.508-1.286-3.027-1.931-4.555c6.418,0.005,12.739-5.69,12.797-12.174c-0.013,0.002-0.025,0.002-0.037,0.005
	c-0.008-0.542-0.361-0.885-0.797-0.988c-0.089-0.114-0.201-0.207-0.334-0.25c-1.563-0.52-3.463,0.142-5.037,0.544
	c-1.925,0.488-3.865,1.649-5.233,3.065c-1.513,1.562-2.581,3.593-2.951,5.731c-0.456-1.287-0.872-2.581-1.179-3.895
	c-1.145-4.903-2.456-10.032-4.194-14.667c1.672-0.542,3.248-1.582,4.17-2.781c1.808-2.354,1.541-5.758,0.331-8.308
	c-2.871-6.044-12.241-4.525-14.288,1.23c-1.033,2.905,0.272,6.841,2.799,8.578c0.565,0.387,1.31,0.735,2.106,0.988
	c0.267,0.13,0.535,0.258,0.828,0.375c0.769,0.306,1.64,0.358,2.527,0.257c-0.027,4.125,1.288,8.681,2.367,12.421
	c0.898,3.117,1.378,6.424,2.794,9.377c1.014,2.112,1.866,4.293,2.753,6.458c-3.694-3.69-7.367-7.401-10.935-11.215
	c-7.478-8-14.944-15.409-20.368-24.986c2.072-1.535,3.347-4.062,2.783-7.005c-1.208-6.312-8.387-7.631-12.926-3.621
	c-2.042,1.805-2.526,4.363-1.906,6.942c0.43,1.789,1.874,4.318,3.903,4.446c0.223,0.121,0.444,0.234,0.657,0.315
	c2.226,0.841,4.606,0.562,6.532-0.477c0.662,2.248,1.625,4.383,2.806,6.424c-1.537-0.75-3.222-1.096-4.874-0.722
	c-2.843,0.641-7.429,2.191-8.42,5.412c-0.313,0.032-0.604,0.299-0.474,0.652c0.792,2.161,3.218,2.545,5.606,3.294
	c4.199,1.318,8.992,0.128,12.484-2.415c2.323,2.88,4.859,5.596,7.249,8.2c0.75,0.817,1.513,1.62,2.265,2.435
	c-3.597-2.097-7.604-3.182-12.19-2.189c-9.206,1.987-9.046,12.579-1.499,16.379c5.938,2.991,13.407-7.444,7.266-10.319
	c-5.695-2.667-7.554,4.946-3.168,4.849c0.283-0.007,0.488-0.205,0.584-0.438c0.981,3.116-0.479,4.055-4.449,2.761
	c-2.96-1.701-3.466-4.484-1.519-8.355c3.235-4.075,10.219-2.48,13.891-0.292c3.415,2.034,6.542,4.521,9.739,6.903
	c3.533,3.733,7.097,7.438,10.718,11.098c2.061,2.083,4.079,4.188,6.062,6.31c-4.952-0.45-11.013,3.008-12.971,7.039
	c-0.265,0.11-0.354,0.522-0.154,0.768c2.229,2.721,6.952,2.702,10.122,2.158c3.02-0.515,6.059-2.327,7.398-5.151
	c6.485,7.25,12.51,14.779,18.076,22.712c-3.308-1.024-6.826-1.611-10.064-2.453c-3.438-0.894-7.38-2.05-11.074-1.991
	c0.005-0.081,0.022-0.169,0.022-0.25c0.017-6.359-8.057-8.609-12.343-4.928c-2.034,1.746-2.076,6.021-0.932,8.206
	c0.531,1.013,1.347,1.96,2.279,2.62c0.114,0.081,0.793,0.369,0.99,0.355c1.378,0.897,3.035,1.154,4.914,0.866
	c2.378-0.365,4.106-2.786,4.777-5.13c2.77,1.132,6.156,1.492,8.892,2.185c0.178,0.045,0.76,0.194,1.565,0.401
	c-0.052,0.009-0.116,0.029-0.166,0.039c-2.425,0.398-5.301,3.124-6.597,5.051c-2.16,3.215-3.261,7.646-1.705,11.268
	c0.092,0.215,0.477,0.215,0.569,0c0.04-0.094,0.082-0.205,0.124-0.309c0.102-0.037,0.19-0.1,0.257-0.203
	c-0.271,0.424,2.868-0.396,2.991-0.441c2.032-0.754,3.476-2.229,5.142-3.541c2.796-2.201,4.108-7.039,4.245-10.599
	c3.3,0.866,6.922,1.843,8.56,2.356c3.095,4.597,6.04,9.334,8.817,14.246c3.548,6.273,6.776,12.715,9.763,19.266
	c-1.982-2.748-4.233-5.363-7.066-7.746c-6.587-5.54-16.799-8.604-22.285-0.15c-4.083,6.291,3.034,16.373,10.289,14.584
	c4.864-1.201,7.321-9.391,1.104-10.102c-0.292-0.033-0.543,0.186-0.697,0.4c-0.217,0.307-0.249,0.445-0.352,0.828
	c-0.113,0.416,0.366,0.83,0.752,0.578c2.017,2.111,1.19,3.824-2.481,5.139c-2.563-0.406-4.44-1.734-5.636-3.99
	c-3.894-5.438,3.061-10.165,7.702-9.463c6.144,0.93,10.635,5.74,14.806,9.891c3.565,3.549,6.256,7.988,9.076,12.244
	c1.463,3.664,2.856,7.357,4.174,11.08c-1.232-0.896-2.563-1.604-3.7-2.018c-3.777-1.377-10.471-0.486-13.509,2.344
	c-0.247-0.068-0.537,0.021-0.611,0.314c-0.658,2.551,5.589,6.859,7.396,7.621c3.848,1.621,9.568,2.512,13.166-0.193
	c0.97,2.984,1.911,5.977,2.798,8.982c1.109,3.76,2.142,7.557,3.125,11.365c-0.271-0.188-0.544-0.379-0.819-0.574
	c-2.624-1.883-7.244-3.658-10.375-4.789c-3.529-1.273-7.018-2.275-10.741-2.738c-1.808-0.225-3.902-0.814-5.74-1.016
	c-0.793-0.086-1.686,0.057-2.536,0.102c0.105-1.998-0.631-3.963-2.587-5.35c-3.153-2.229-6.661-1.279-9.917,0.221
	c-3.063,1.412-3.748,5.449-3.05,8.375c0.814,3.416,4.236,5.428,7.616,4.846c0.098-0.018,0.197-0.043,0.296-0.061
	c1.381-0.068,2.682-0.564,3.811-1.357c0.562-0.346,1.046-0.771,1.445-1.273c1.085-1.18,1.867-2.633,2.208-4.141
	c0.293,0.012,0.673,0.021,1.249,0.098c3.525,0.475,7.36,1.783,10.863,2.594c0.074,0.018,0.148,0.049,0.223,0.068
	c-1.346,0.637-2.604,1.566-3.739,2.494c-3.588,2.945-4.902,7.318-5.015,11.775c-0.239,0.209-0.227,0.604,0.132,0.719
	c0.045,0.014,0.093,0.016,0.138,0.029c0.089,0.043,0.173,0.064,0.274,0.057c3.507,0.887,7.917-1.049,10.365-3.475
	c2.511-2.488,3.533-6.021,3.747-9.434c1.772,0.836,3.499,1.762,5.138,2.662c2.667,1.463,6.936,2.457,8.25,5.389
	c0.029,0.066,0.074,0.1,0.107,0.154c1.146,4.848,2.166,9.727,2.972,14.629c1.691,10.287,2.421,20.627,4.734,30.783
	c-0.57,3.867-1.216,7.717-1.942,11.555c-0.205-8.074-1.374-16.148-3.703-23.77c-2.547-8.34-13.576-21.947-21.994-11.67
	c-3.108,3.795-2.185,10.52,0.017,14.504c1.826,3.307,8.479,5.25,11.438,2.434c2.555-2.436,5.292-7.748,0.757-10.199
	c-2.087-1.127-5.33-1.098-5.043,2.057c0.072,0.799,1.076,0.924,1.363,0.186c3.256,3.887,2.442,5.803-2.442,5.754
	c-3.381-1.52-4.939-3.902-4.674-7.152c-0.253-4.508,2.129-8.971,6.856-7.523c7.788,2.381,10.379,10.777,11.996,18.01
	c1.502,6.723,2.358,14.01,2.769,21.236c-0.906-1.457-2.022-2.781-3.142-3.873c-2.17-2.115-6.067-5.123-9.354-3.938
	c-0.208,0.076-0.334,0.346-0.24,0.535c-1.334,4.613,1.49,8.824,4.428,12.186c1.52,1.738,5.606,4.564,8.28,3.799
	c-2.449,10.258-5.525,20.389-9.314,30.352c-0.906-4.514-3.37-9.02-5.364-12.896c-0.001-0.156-0.042-0.314-0.123-0.443
	c-0.066-0.105-0.167-0.176-0.246-0.268c-2.493-4.879-5.387-9.838-9.639-13.348c1.581-1.445,2.744-3.662,2.766-5.652
	c0.065-6.033-5.602-10.697-11.46-8.324c-2.614,1.059-4.196,3.197-4.867,5.871c-0.311,1.23-0.456,2.838-0.322,4.107
	c0.08,0.762,0.473,1.066,0.8,1.48c0.551,1.33,1.458,2.492,2.778,3.346c2.915,1.883,5.617,1.771,8.568,0.342
	c1.266,2.865,4.759,6.201,5.969,8.191c0.516,0.85,1.038,1.736,1.557,2.643c-1.288-0.037-2.58,0.098-3.471,0.182
	c-3.98,0.377-7.408,3.664-9.64,6.713c-0.123,0.168-0.152,0.33-0.146,0.484c-0.001,0-0.002,0-0.003,0
	c-0.176,0.045-0.239,0.279-0.108,0.406c3.243,3.127,7.416,2.504,11.446,1.244c1.657-0.52,2.902-1.791,3.85-3.18
	c0.197-0.289,0.46-0.564,0.728-0.844c2.241,4.609,4.036,9.572,4.379,14.275c0.025,0.336,0.168,0.68,0.388,0.949
	c0.003,0.049,0.01,0.1,0.013,0.146c-0.948,2.32-1.926,4.631-2.957,6.93c-1.958,4.367-4.323,8.35-6.643,12.508
	c-1.07,1.918,1.869,3.633,2.938,1.719c2.448-4.381,4.697-8.844,6.798-13.361c2.179,1.459,5.951,2.041,7.708,2.049
	c4.298,0.021,9.872-0.91,13.018-4.223c0.255-0.115,0.464-0.301,0.564-0.572c0.382-0.076,0.665-0.537,0.424-0.898
	c-1.838-2.76-6.924-4.771-10.254-4.305c-3.425,0.484-6.702,1.771-9.531,3.691c1.776-4.057,3.42-8.162,4.942-12.309
	c3.018-5.484,4.755-11.744,11.905-13.477c3.293-0.797,8.486,1.479,7.992,5.352c-0.421,3.299-2.315,7.367-4.812,3.373
	c2.24-0.842,0.187-8.459-4.042-4.463c-5.94,5.613,3.339,13.258,8.859,7.959c5.954-5.721,2.714-14.158-5.242-15.125
	c-4.513-0.551-7.975,1.395-10.644,4.424c1.76-5.754,3.301-11.578,4.639-17.455c0.016-0.027,0.039-0.043,0.052-0.072
	c2.757-6.104,5.276-11.955,9.075-17.242c4.844,4.035,15.757,3.846,19.831,0.193c0.008-0.006,0.008-0.016,0.016-0.021
	c0.476,0,0.937-0.494,0.772-0.982c-1.21-3.613-7.558-4.697-10.79-5.051c-2.057-0.225-3.966,0.238-5.755,1.008
	c0.111-0.111,0.207-0.232,0.319-0.346c2.704-2.709,5.77-4.877,8.485-7.531c0.072-0.07,0.171-0.195,0.279-0.34
	c0.499,1.023,1.185,1.945,2.041,2.648c5.112,4.191,12.139,0.545,13.275-5.467c1.171-6.188-5.427-11.232-11.143-9.295
	c-2.584,0.875-4.075,3.359-4.879,5.805c-0.367,1.115-0.468,2.539-0.202,3.83c-3.629,1.102-8.261,6.387-10.079,8.127
	c-2.797,2.678-5.883,6.291-8.409,10.254c1.659-9.697,2.826-19.504,3.564-29.359c2.938,0.367,7.022-1.133,8.825-2.104
	c2.413-1.299,4.671-3.383,6.127-5.705c0.658-1.051,1.823-2.5,1.529-3.791c0.076-0.195,0.089-0.412-0.003-0.619
	c-0.629-1.4-3.13-1.367-4.357-1.543c-2.806-0.404-5.401,0.246-7.749,1.777c-1.347,0.881-2.708,2.141-3.854,3.604
	c0.112-2.191,0.205-4.387,0.277-6.58c1.771-5.738,3.782-11.424,5.017-17.293c1.151-5.465,2.247-11.545,5.934-15.898
	c2.125-2.508,4.688-3.822,7.943-4.133c2.458-0.254,4.136,0.971,5.035,3.67c0.134,0.789,0.268,1.578,0.401,2.367
	c-0.66,3.396-2.227,3.768-4.702,1.111c0.508,0.086,0.875-0.281,0.791-0.789c-0.034-0.199-0.066-0.396-0.099-0.592
	c-0.06-0.361-0.407-0.629-0.729-0.732c-5.23-1.648-4.021,7.607,1.91,7.75c8.655,0.213,6.988-11.877,2.035-15.303
	c-3.044-2.104-7.748-0.693-10.721,0.701c-5,2.346-7.364,7.66-9.02,12.561c-1.563,4.627-2.532,9.641-3.578,14.523
	c0.028-10.184-0.318-20.359-0.964-30.459c0.842,0.266,1.7,0.467,2.56,0.402c1.796-0.133,3.832-1.23,5.421-2.029
	c4.046-2.033,5.646-5.477,6.489-9.672c-0.016,0-0.031,0-0.047,0c0.1-0.398,0.012-0.734-0.199-0.986
	c-0.982-3.758-8.093-1.418-10.118-0.035c-1.464,1.002-3.608,2.262-4.179,4.068c-0.126,0.398-0.272,0.809-0.42,1.223
	c-0.417-5.369-0.914-10.707-1.475-16.014c3.089-5.99,5.581-12.391,9.154-18.229c2.728-4.455,6.766-8.232,10.684-11.629
	c1.524-1.32,2.726-2.861,3.995-4.35c0.374,0.828,0.892,1.512,1.569,1.971c0.517,0.598,1.178,1.086,2.085,1.383
	c5.38,1.76,12.243-3.463,10.767-9.199c-1.453-5.648-9.78-8.591-13.678-3.832c-1.299,1.586-1.87,5.042-1.305,7.887
	c-3.118,1.843-6.083,4.237-8.797,6.93c0.826-1.833,1.417-3.741,1.541-5.974c0.123-2.21-0.425-4.516-1.077-6.604
	c-0.6-1.924-1.979-2.527-2.904-3.972c0.021-0.034,0.045-0.069,0.065-0.104c0.071-0.114-0.05-0.297-0.187-0.243
	c-0.077,0.032-0.133,0.074-0.207,0.106c-0.055-0.009-0.109-0.027-0.166-0.009c-0.072,0.022-0.143,0.042-0.215,0.065
	c-0.124,0.039-0.19,0.138-0.2,0.246c-4.175,2.131-4.959,6.321-5.609,10.821c-0.345,2.376,1.66,9.591,4.604,10.451
	c-1.251,1.514-2.429,3.053-3.502,4.576c-2.947,4.184-5.2,9.315-7.259,13.985c-0.97-8.545-2.039-17.079-3.217-25.598
	c0.637-7.178,1.555-14.433,2.659-21.449c0.998-6.348,1.706-17.038,6.705-21.646c4.199-3.873,10.4-3.735,12.51,2.331
	c0.264,0.76-9.953,3.021-5.346,1.57c0.422-0.133,0.58-0.661,0.261-0.988c-0.604-0.612-2.404-2.102-4.042-0.463
	c-2.695,2.695-0.426,7.934,2.889,8.87c11.695,3.304,12.389-13.17,3.06-16.976c-4.898-1.996-9.582,1.353-12.938,4.485
	c-4.768,4.451-4.755,15.144-5.83,21.05c-0.775,4.265-1.321,9.134-1.243,13.457c0.003,0.173-0.009,0.346-0.009,0.52
	c-0.17-1.161-0.326-2.325-0.5-3.486c0.042-0.11,0.066-0.232,0.06-0.367c-0.773-15.907,0.06-31.755,1.922-47.516
	c3.508-4.248,6.98-8.312,11.06-12.076c1.132,3.29,3.716,6.689,6.965,7.797c2.523,0.859,7.525,1.645,10.094,0.139
	c0.002,0,0.003,0.002,0.006,0.002c1.178,0.328,1.909-1.112,1.143-1.962c-4.421-4.912-9.067-9.401-15.776-7.864
	c4.398-2.943,9.456-3.992,14.161-6.384c0.267,1.598,1.035,2.869,2.626,4.094c4.133,3.182,10.473,0.225,11.265-4.703
	c0.806-5.014-4.655-9.23-9.424-8.213c-2.878,0.612-4.175,2.953-4.416,5.54c-0.062,0.27-0.11,0.538-0.129,0.792
	c-0.024,0.311-0.033,0.603-0.037,0.891c-0.843,0.092-1.693,0.396-2.439,0.644c-3.894,1.294-7.472,1.865-11.137,3.899
	c-5.189,2.878-9.582,7.721-13.371,12.567c0.461-3.492,0.98-6.978,1.533-10.461c2.895-6.946,6.376-13.708,9.038-20.718
	c2.023-5.326,4.443-10.142,7.202-15.087c1.635-2.93,3.479-4.996,6.677-6.21c4.596-0.302,7.237,1.402,7.925,5.114
	c-0.188,1.773-0.377,3.547-0.564,5.32c-2.453,3.864-3.967,3.429-4.562-1.21c0.033,0.007,0.064,0.013,0.097,0.02
	c0.384,0.079,0.745-0.049,0.956-0.389c1.576-2.534-0.169-4.32-2.686-4.743c-4.521-0.761-4.964,6.104-3.993,8.793
	c1.224,3.389,6.087,4.833,9.037,2.763c4.712-3.308,5.795-7.511,4.229-12.93c-1.445-4.993-6.692-6.767-11.255-5.702
	c-5.841,1.361-8.057,7.302-10.874,11.825c-3.562,5.715-6.048,13.316-7.848,19.75c-0.532,1.906-1.271,3.76-2.069,5.599
	c3.779-21.323,9.028-42.439,14.458-63.256c5.595,2.874,16.366-0.409,18.518-6.104c0.355-0.5,0.143-1.066-0.301-1.429
	c-1.455-3.018-7.995-3.747-10.703-3.034c-2.219,0.585-4.086,1.681-5.562,3.144c2.222-8.382,4.526-16.683,7.111-24.88
	c3.182-4.496,7.752-8.765,12.107-12.372c0.928,1.951,3.251,4.226,3.91,4.829c3.737,3.418,9.298,3.168,13.771,1.521
	c0.119-0.045,0.192-0.14,0.28-0.218c0.793-0.016,1.611-0.682,1.248-1.553c-0.045-0.106-0.089-0.203-0.136-0.297
	c0.003-0.002,0.007-0.002,0.009-0.002c-0.01-0.018-0.022-0.034-0.033-0.052c-0.015-0.027-0.035-0.054-0.051-0.081
	c-1.841-3.499-4.48-5.749-8.219-7.068c-1.916-0.673-4.05-0.677-6.046-0.601c-0.142,0.005-0.243,0.027-0.37,0.039
	c2.644-2.041,5.512-4.093,8.459-5.47c0.964-0.45,1.732-1.231,2.503-1.949c0.267,1.708,0.973,3.326,2.26,4.5
	c4.504,4.113,12.212-0.234,12.917-5.596c0.37-2.82-0.772-5.9-3.206-7.522c-1.287-0.855-2.973-1.537-4.508-1.737
	c-1.387-0.182-2.537,0.401-3.75,1.017c-1.58,0.804-2.574,2.331-3.137,4.015c-0.126,0.268-0.236,0.533-0.306,0.783
	c-0.235,0.837-0.362,1.732-0.388,2.639c-4.302,1.296-8.749,4.754-12.327,7.133c-3.558,2.362-6.855,5.378-9.709,8.544
	c-1.001,1.111-2.13,2.21-3.256,3.333c2.983-8.848,6.363-17.57,10.446-26.125c2.689,1.805,6.49,2.086,9.576,1.852
	c1.374-0.104,3.338-0.801,4.508-1.519c0.805-0.493,1.146-0.763,1.859-1.395c0.458-0.407,1.054-1.942,1.478-2.212
	c0.333-0.211,0.508-0.502,0.561-0.806c0.219-0.27,0.305-0.652,0.1-0.963c-1.957-2.971-7.171-2.871-10.33-2.374
	c-1.91,0.299-3.847,1.532-5.55,2.963c0.052-0.104,0.104-0.205,0.155-0.308c1.71-2.163,3.538-4.26,5.016-6.416
	c2.411-3.521,5.188-6.782,7.746-10.198c1.438-1.919,2.805-3.495,4.484-5.162c1.474-1.647,3.317-2.776,5.53-3.394
	c3.66-0.139,4.402,1.103,2.3,3.687c-0.416-1.141-1.435-2.028-2.812-1.22c-2.945,1.724-2.284,5.243-0.596,7.542
	c1.734,2.363,5.698,2.054,7.581,0.108c2.845-2.938,2.986-6.197,1.202-9.775c-1.432-2.871-6.501-4.685-9.507-3.542
	c-4.535,1.724-8.314,6.177-10.833,10.207c-0.467,0.747-0.975,1.471-1.467,2.205c1.755-3.031,3.537-6.044,5.37-9.026
	c5.474-8.904,11.859-17.32,16.895-26.485c0.235,0.193,0.479,0.385,0.735,0.569c1.945,1.399,5.232,0.839,7.015-0.518
	c1.9-1.449,2.8-3.699,2.888-6.04C218.996,385.02,217.777,382.657,216.074,381.413z M102.303,238.153
	C101.863,238.333,102.059,237.69,102.303,238.153L102.303,238.153z M91.321,76.818c-0.045,0.041-0.09,0.077-0.132,0.119
	c-0.007-0.04-0.016-0.083-0.023-0.123C91.21,76.814,91.264,76.816,91.321,76.818z M163.716,593.922L163.716,593.922
	C162.735,594.194,164.265,593.708,163.716,593.922z"/>
</svg>
